<?xml version="1.0" encoding="UTF-8"?>
<svg width="100" height="100" viewBox="0 0 100 100" xmlns="http://www.w3.org/2000/svg">
  <!-- Main ball body -->
  <defs>
    <!-- Gradient for the metallic look -->
    <radialGradient id="ballGradient" cx="40%" cy="40%" r="60%" fx="30%" fy="30%">
      <stop offset="0%" stop-color="#ffffff" />
      <stop offset="30%" stop-color="#4b9cd3" />
      <stop offset="70%" stop-color="#2a5b9c" />
      <stop offset="100%" stop-color="#1a3a6c" />
    </radialGradient>
    
    <!-- Glow effect -->
    <filter id="glow" x="-30%" y="-30%" width="160%" height="160%">
      <feGaussianBlur stdDeviation="3" result="blur" />
      <feComposite in="SourceGraphic" in2="blur" operator="over" />
    </filter>
  </defs>
  
  <!-- Ball shadow -->
  <ellipse cx="50" cy="90" rx="40" ry="10" fill="rgba(0,0,0,0.3)" />
  
  <!-- Main ball -->
  <circle cx="50" cy="50" r="45" fill="url(#ballGradient)" />
  
  <!-- Hexagonal pattern overlay -->
  <g stroke="#ffffff" stroke-width="1" fill="none" opacity="0.7">
    <!-- Center hexagon -->
    <polygon points="50,20 70,35 70,65 50,80 30,65 30,35" />
    
    <!-- Surrounding hexagons -->
    <polygon points="50,5 70,15 70,35 50,45 30,35 30,15" />
    <polygon points="75,35 95,45 95,65 75,75 55,65 55,45" />
    <polygon points="50,55 70,65 70,85 50,95 30,85 30,65" />
    <polygon points="25,35 45,45 45,65 25,75 5,65 5,45" />
  </g>
  
  <!-- Energy glow lines -->
  <g stroke="#00ffff" stroke-width="1.5" opacity="0.8" filter="url(#glow)">
    <path d="M25,25 L75,75" />
    <path d="M75,25 L25,75" />
    <path d="M50,15 L50,85" />
    <path d="M15,50 L85,50" />
  </g>
  
  <!-- Highlight -->
  <circle cx="35" cy="35" r="10" fill="white" opacity="0.3" />
  
  <!-- Energy core -->
  <circle cx="50" cy="50" r="10" fill="#00ffff" opacity="0.6" />
</svg>
