<?xml version="1.0" encoding="UTF-8" standalone="no"?>
<svg xmlns="http://www.w3.org/2000/svg" viewBox="0 0 100 200" width="100" height="200">
  <!-- NASA Rocket SVG -->
  
  <!-- Rocket body - white cylinder -->
  <rect x="30" y="40" width="40" height="120" rx="10" fill="#f0f0f0" />
  
  <!-- NASA blue stripe -->
  <rect x="40" y="40" width="20" height="120" fill="#0a3161" />
  
  <!-- NASA logo -->
  <g transform="translate(50, 100) rotate(-90)">
    <text x="0" y="0" font-family="Arial" font-size="14" font-weight="bold" text-anchor="middle" fill="#ffffff">NASA</text>
  </g>
  
  <!-- Nose cone - red (pointing up) -->
  <polygon points="50,20 30,60 70,60" fill="#e83629" />
  
  <!-- Rocket window - blue circle -->
  <circle cx="50" cy="90" r="10" fill="#add8e6" />
  
  <!-- Window highlight -->
  <circle cx="47" cy="87" r="4" fill="#ffffff" fill-opacity="0.6" />
  
  <!-- Left fin -->
  <polygon points="30,140 10,170 35,140" fill="#b4b4b4" />
  
  <!-- Right fin -->
  <polygon points="70,140 90,170 65,140" fill="#b4b4b4" />
  
  <!-- Left side fin -->
  <polygon points="30,60 20,70 30,50" fill="#b4b4b4" />
  
  <!-- Right side fin -->
  <polygon points="70,60 80,70 70,50" fill="#b4b4b4" />
  
  <!-- USA text -->
  <text x="60" y="100" font-family="Arial" font-size="10" text-anchor="middle" fill="#ffffff">USA</text>
  
  <!-- Rocket exhaust/flame effect (to be shown when moving) -->
  <g id="flame" style="display:none;">
    <!-- Outer flame -->
    <polygon points="50,160 35,190 50,200 65,190" fill="#ff9632" fill-opacity="0.6" />
    
    <!-- Inner flame -->
    <polygon points="50,160 40,185 50,195 60,185" fill="#ffff64" fill-opacity="0.8" />
    
    <!-- Center flame -->
    <polygon points="50,160 45,180 50,185 55,180" fill="#ffffff" fill-opacity="0.9" />
  </g>
</svg>
